<?xml version="1.0" encoding="UTF-8"?>
<svg id="logomark" xmlns="http://www.w3.org/2000/svg" version="1.1" viewBox="0 0 1160.6 172.9">
  <!-- Generator: Adobe Illustrator 29.0.0, SVG Export Plug-In . SVG Version: 2.1.0 Build 186)  -->
  <defs>
    <style>.st0 {
  fill: #fff;
}
</style>
  </defs>
  <g>
    <path class="st0" d="M1081.9,0c-45.6,0-78.7,32.4-78.7,86.3s32.9,86.3,78.7,86.3,78.7-32.4,78.7-86.3S1127.6,0,1081.9,0ZM1083.2,146.9h-2.3c-29.6,0-49.3-22.5-49.3-60.6s19.7-60.6,49.3-60.6h2.3c29.6,0,49.3,22.5,49.3,60.6s-19.7,60.6-49.3,60.6Z"></path>
    <path class="st0" d="M424.7.5h-.5c-22,0-35.7,14.5-45.2,47.8h0l-34.5,122.1h29.1l12.5-44.4h76.6l12.5,44.4h29.6l-34.5-122.1C460.9,15,447.2.5,424.7.5ZM393.3,100.4l22-78.5h18.4l22,78.5h-62.4Z"></path>
    <path class="st0" d="M738.2.4h-.5c-22,0-35.7,14.5-45.2,47.8l-34.5,122.1h29.1l12.5-44.4h76.6l12.5,44.4h29.6l-34.5-122.1C774.4,14.9,760.7.4,738.2.4ZM706.8,100.4l22-78.5h18.4l22,78.5h-62.4Z"></path>
    <path class="st0" d="M264.5,147.1h-2.3c-29.2,0-48.5-22.6-48.5-60.7s19.3-60.7,48.5-60.7h2.3c20.3,0,35.8,11.3,39.5,31h28.2c-3-32.9-29.6-56.7-69-56.7s-77.9,32.4-77.9,86.4,32.4,86.4,77.9,86.4h0c39.3,0,65.9-23.3,69-56.7h-28.3c-3.8,19.9-19.3,31-39.6,31h0Z"></path>
    <path class="st0" d="M906.6,100.7h46.3v4.1c-1.4,27-22.2,41.5-48,41.5s-52-25.1-52-60.8,20.5-60.8,52.3-60.8,39.1,12.9,44.1,34.1h28.4C972.7,23.4,944.5.5,905.9.5s-81.1,34.1-81.1,84.9h0c0,50.8,32.2,84.9,79,84.9s43.7-11.9,51.8-23.9l2.4,22.4h21.2v-91.4h-72.5v23.1Z"></path>
    <path class="st0" d="M591,73.1c-26.2-4.5-43.3-8.1-43.3-25.2s13.1-23.8,31.9-23.8,33.6,11.4,35.7,28.3h27.4c-1.2-30.7-25-51.4-63.1-51.4s-59.3,19.8-59.3,48.8,26.2,41.9,53.8,46.7c26.4,4.8,43.8,8.6,43.8,26.2s-14.3,24.8-34,24.8h0c-23.3,0-38.5-13.1-40-32.6l-27.6-.5c1,33.3,25.9,56.2,67.4,56.2s61.7-20.7,61.7-50.7c.2-32.8-26.7-41.7-54.3-46.7h0Z"></path>
  </g>
  <path class="st0" d="M0,99.7v-1.2c0-30.6,20-42.3,69.2-55.6v25.6l-47.1,14.8v32.1l47.1,14.8v25.6C20,142.1,0,130.8,0,99.7ZM69.2,130.1v-25.6l47.1-14.8v-32.1l-47.1-14.8v-25.6c49.1,13.3,69.2,25.1,69.2,55.6v1.2c0,31.1-20.1,42.3-69.2,55.9h0Z"></path>
</svg>