<svg xmlns="http://www.w3.org/2000/svg" width="66.916" height="60.262" viewBox="0 0 66.916 60.262">
  <path id="map" d="M66.641,9.86,46.566,3.168h-.234a2.342,2.342,0,0,0-.468,0H44.425l-19,6.524-19-6.524A3.374,3.374,0,0,0,2,6.347V53.188a3.346,3.346,0,0,0,2.275,3.179L24.35,63.058h0a3.346,3.346,0,0,0,2.074,0h0L45.5,56.7l19,6.524a3.981,3.981,0,0,0,1.071,0,3.145,3.145,0,0,0,1.941-.636,3.346,3.346,0,0,0,1.405-2.71V13.038A3.346,3.346,0,0,0,66.641,9.86ZM22.075,55.229,8.692,50.779V11l13.383,4.45Zm20.075-4.45-13.383,4.45V15.447L42.15,11Zm20.075,4.45-13.383-4.45V11l13.383,4.45Z" transform="translate(-2 -3)" fill="#54ef00"></path>
</svg>
