<svg xmlns="http://www.w3.org/2000/svg" width="72.001" height="64.194" viewBox="0 0 72.001 64.194">
  <path id="constructor" d="M66.879,26.458v-.52C66.924,15.254,58.751,5.8,46.734,2.625h-.216a34.977,34.977,0,0,0-9.334-1.1C21.564,2.251,9.31,13.177,9.219,26.458,4.891,27.751,2,31.222,2,35.117s2.9,7.366,7.224,8.658c1.538,12.517,14.006,22,28.83,21.937h.829c14.287-.587,25.987-9.847,27.677-21.906,4.38-1.22,7.367-4.663,7.44-8.576S71.211,27.8,66.879,26.458ZM38.7,59.592c-10.787.265-20.153-6.263-21.947-15.3H59.167C57.356,52.811,48.877,59.148,38.7,59.592ZM63.275,38.176H12.823a3.365,3.365,0,0,1-3.6-3.059,3.365,3.365,0,0,1,3.6-3.059H20.03A3.365,3.365,0,0,0,23.634,29a3.365,3.365,0,0,0-3.6-3.059h-3.6C16.754,19.495,20.8,13.6,27.238,10.182v9.637a3.365,3.365,0,0,0,3.6,3.059,3.365,3.365,0,0,0,3.6-3.059V7.856q1.467-.208,2.955-.275h.649a28.079,28.079,0,0,1,3.6.275V19.819a3.365,3.365,0,0,0,3.6,3.059,3.365,3.365,0,0,0,3.6-3.059V10.09a24.158,24.158,0,0,1,4.252,2.662,17.125,17.125,0,0,1,6.559,13.186h-3.6A3.365,3.365,0,0,0,52.464,29a3.365,3.365,0,0,0,3.6,3.059h7.207a3.365,3.365,0,0,1,3.6,3.059A3.365,3.365,0,0,1,63.275,38.176Z" transform="translate(-1.996 -1.518)" fill="#54ef00"></path>
</svg>
