<svg xmlns="http://www.w3.org/2000/svg" width="70.897" height="60.262" viewBox="0 0 70.897 60.262">
  <path id="layers" d="M3.784,28.525,35.672,46.949a3.543,3.543,0,0,0,3.543,0L71.1,28.525a3.543,3.543,0,0,0,0-6.13L39.215,3.971a3.543,3.543,0,0,0-3.543,0L3.784,22.4a3.543,3.543,0,0,0,0,6.13Zm33.66-17.4L62.246,25.3l-24.8,14.35-24.8-14.208Zm30.117,27.6-30.117,17.4L7.327,38.729a3.54,3.54,0,1,0-3.543,6.13L35.672,63.283a3.543,3.543,0,0,0,3.543,0L71.1,44.859a3.54,3.54,0,1,0-3.543-6.13Z" transform="translate(-1.995 -3.496)" fill="#54ef00"></path>
</svg>
