<svg id="Ebene_1" data-name="Ebene 1" xmlns="http://www.w3.org/2000/svg" viewBox="0 0 1368.67 238.52"><defs><style>.cls-1{fill:#999;}.cls-2{fill:#004a82;}</style></defs><title>logo_final</title><path class="cls-1" d="M16,195.43H.76v-6.16H38.14v6.16H23v42.7H16Z" transform="translate(-0.76 -0.45)"/><path class="cls-1" d="M63.9,189.26H91.27v6.16H70.9v14.28H89.45v6.16H70.9V232H91.27v6.16H63.9Z" transform="translate(-0.76 -0.45)"/><path class="cls-1" d="M154.62,197.32a19.64,19.64,0,0,0-10.08-2.73c-11.27,0-18.76,8.12-18.76,19.11,0,11.48,8.26,19.11,18.41,19.11,3.5,0,8.19-.91,10.64-2.38l.42,6.79c-3.71,1.54-8.26,1.75-11.13,1.75-15.47,0-25.76-9.94-25.76-25.48,0-15.05,10.92-25.06,25.83-25.06a26.94,26.94,0,0,1,11,2.1Z" transform="translate(-0.76 -0.45)"/><path class="cls-1" d="M182.41,189.26h7v20.44h23.38V189.26h7v48.87h-7V215.87H189.41v22.26h-7Z" transform="translate(-0.76 -0.45)"/><path class="cls-1" d="M250.94,189.26h9.52L282,228.61h.14V189.26h7v48.87h-9l-22.12-40.18h-.14v40.18h-7Z" transform="translate(-0.76 -0.45)"/><path class="cls-1" d="M320,189.26h7v48.87h-7Z" transform="translate(-0.76 -0.45)"/><path class="cls-1" d="M358.18,189.26h7v21.49L386,189.26h9.31l-23,23.1,24.78,25.76H387l-21.77-23.94v23.94h-7Z" transform="translate(-0.76 -0.45)"/><path class="cls-1" d="M457.23,216.64h18V222h-18Z" transform="translate(-0.76 -0.45)"/><path class="cls-1" d="M540.74,189.26h7v21.49l20.86-21.49h9.31l-23,23.1,24.78,25.76H569.51l-21.77-23.94v23.94h-7Z" transform="translate(-0.76 -0.45)"/><path class="cls-1" d="M621,189.26h7.35L649,238.13h-7.63l-5-12.32H612.42l-5,12.32H600.1Zm3.43,6.58-9.73,24.22h19.46Z" transform="translate(-0.76 -0.45)"/><path class="cls-1" d="M674,189.26h12c9.66,0,19,1.54,19,13.23,0,6-4.41,10.15-10.08,11.13v.14c2.17.84,3.22,1.89,4.76,4.9l9.24,19.46h-8l-7.49-16.94c-2.17-4.76-4.48-4.76-8.19-4.76H681v21.7h-7Zm7,21h6c6.65,0,10.57-2.94,10.57-7.63,0-4.41-3.36-7.21-9.8-7.21H681Z" transform="translate(-0.76 -0.45)"/><path class="cls-1" d="M735.2,189.26h12c9.66,0,19,1.54,19,13.23,0,6-4.41,10.15-10.08,11.13v.14c2.17.84,3.22,1.89,4.76,4.9l9.24,19.46h-8l-7.49-16.94c-2.17-4.76-4.48-4.76-8.19-4.76h-4.2v21.7h-7Zm7,21h6c6.65,0,10.57-2.94,10.57-7.63,0-4.41-3.36-7.21-9.8-7.21H742.2Z" transform="translate(-0.76 -0.45)"/><path class="cls-1" d="M796.79,189.26h7v48.87h-7Z" transform="translate(-0.76 -0.45)"/><path class="cls-1" d="M835,189.26h27.37v6.16H842v14.28h18.55v6.16H842V232h20.37v6.16H835Z" transform="translate(-0.76 -0.45)"/><path class="cls-1" d="M891.58,189.26h12c9.66,0,19,1.54,19,13.23,0,6-4.41,10.15-10.08,11.13v.14c2.17.84,3.22,1.89,4.76,4.9l9.24,19.46h-8L911,221.19c-2.17-4.76-4.48-4.76-8.19-4.76h-4.2v21.7h-7Zm7,21h6c6.65,0,10.57-2.94,10.57-7.63,0-4.41-3.36-7.21-9.8-7.21h-6.72Z" transform="translate(-0.76 -0.45)"/><path class="cls-1" d="M953.53,189.26H980.9v6.16H960.53v14.28h18.55v6.16H960.53V232H980.9v6.16H953.53Z" transform="translate(-0.76 -0.45)"/><path class="cls-1" d="M1044.8,216.64h18V222h-18Z" transform="translate(-0.76 -0.45)"/><path class="cls-1" d="M1127.9,189.26h9.52L1159,228.61h.14V189.26h7v48.87h-9L1135,197.95h-.14v40.18h-7Z" transform="translate(-0.76 -0.45)"/><path class="cls-1" d="M1197.26,189.26h27.37v6.16h-20.37v14.28h18.55v6.16h-18.55V232h20.37v6.16h-27.37Z" transform="translate(-0.76 -0.45)"/><path class="cls-1" d="M1248.15,189.26h7.7l11.69,41.86h.14l10.43-41.86h9.94l10.57,41.86h.14l11.69-41.86h7.42l-15.05,48.87h-9l-10.64-42.7H1283l-10.71,42.7h-9.38Z" transform="translate(-0.76 -0.45)"/><path class="cls-1" d="M1364.85,196.62c-3.57-1.4-5.53-2-9.17-2-3.92,0-8.54,1.4-8.54,6.51,0,9.38,21,7.21,21,23.31,0,10.43-8.05,14.56-17.85,14.56a32.65,32.65,0,0,1-10-2l.7-6.51a29.64,29.64,0,0,0,10.15,2.38c4,0,9.59-2.24,9.59-8,0-10.92-21-7.91-21-23.1,0-8.68,6.86-13.3,15.68-13.3a32.6,32.6,0,0,1,10.43,1.75Z" transform="translate(-0.76 -0.45)"/><path class="cls-2" d="M.89,148.54v-5.82c17.06-1.25,18.72-2.5,18.72-20.17V39.34c0-17.68-1.66-18.93-18.72-20.17V13.34H56v5.82C39,20.41,37.29,21.66,37.29,39.34v83.2c0,17.89,1.66,18.93,18.72,20.17v5.82Z" transform="translate(-0.76 -0.45)"/><path class="cls-2" d="M219.7,19.17c-11.65.62-16.64,3.33-17.47,12.48-.83,6.24-1.25,15.6-1.25,34.94v83.82h-6.45l-88.6-109h-.42V93.63c0,19.14.62,29.12,1.25,35.15,1,10.61,5.82,13.1,20,13.94v5.82H77.43v-5.82c12.06-.62,17.26-3.33,18.3-13.52.62-6.45,1.25-16.43,1.25-35.57V47.87c0-15.18-.42-16-4.16-21-4.16-5.2-8.74-6.86-18.51-7.7V13.34H105.1l86.73,104.41h.62V66.59c0-19.13-.83-28.7-1.46-34.53-1-9.36-6-12.06-20.38-12.9V13.34H219.7Z" transform="translate(-0.76 -0.45)"/><path class="cls-2" d="M360.93,91.55c-12.48,1.87-13.31,2.91-13.31,15.18v17.68c0,7.28.21,13.94,1.46,19.55-12.9,3.12-30,7.7-46.59,7.7-45.76,0-76.33-28.5-76.33-69.68,0-48.25,38.69-71.76,79.45-71.76,17.26,0,33.28,4.58,39.93,6,.62,7.28,1.66,18.72,3.33,32.45L343,49.95c-5-25.38-20.8-32.24-40.56-32.24-31.82,0-55.12,23.29-55.12,61.77,0,30,17.68,64.89,57.82,64.89,7.07,0,13.52-1.46,18.1-3.74,4.16-2.29,6.66-4.78,6.66-13.52V109.43c0-15-1.46-16.22-21.84-17.89V85.93h52.83Z" transform="translate(-0.76 -0.45)"/><path class="cls-2" d="M481.36,115.67c-1.25,6.86-5.41,26.42-7.28,32.86H373.83v-5.82c18.93-1.46,20.59-3.12,20.59-20V40c0-18.72-1.66-19.34-17.89-20.8V13.34H469.3c0,5.2,1,19.34,1.66,30l-6,1c-1.87-8.74-4-13.31-6.66-17.89-2.91-4.37-8.53-5.82-23.5-5.82H419c-6.45,0-6.86.42-6.86,6.66V74.49h19.55c18.72,0,19.76-1.66,22.46-15.6h6V98.83h-6c-2.7-15-4.16-16.22-22.26-16.22H412.1v39.31c0,9.78,1.25,14.14,5,16.85,4,2.5,11.23,2.7,21.63,2.7,15.81,0,21.63-1.66,26.21-7.07,3.54-4.16,7.49-11.23,10.19-19.55Z" transform="translate(-0.76 -0.45)"/><path class="cls-2" d="M637.57,19.17c-11.65.62-16.64,3.33-17.47,12.48-.83,6.24-1.25,15.6-1.25,34.94v83.82H612.4l-88.6-109h-.42V93.63c0,19.14.62,29.12,1.25,35.15,1,10.61,5.82,13.1,20,13.94v5.82H495.3v-5.82c12.06-.62,17.26-3.33,18.3-13.52.62-6.45,1.25-16.43,1.25-35.57V47.87c0-15.18-.42-16-4.16-21-4.16-5.2-8.74-6.86-18.51-7.7V13.34H523L609.7,117.75h.62V66.59c0-19.13-.83-28.7-1.46-34.53-1-9.36-6-12.06-20.38-12.9V13.34h49.09Z" transform="translate(-0.76 -0.45)"/><path class="cls-2" d="M656.71,148.54v-5.82c17.06-1.25,18.72-2.5,18.72-20.17V39.34c0-17.68-1.66-18.93-18.72-20.17V13.34h55.12v5.82c-17.06,1.25-18.72,2.5-18.72,20.17v83.2c0,17.89,1.66,18.93,18.72,20.17v5.82Z" transform="translate(-0.76 -0.45)"/><path class="cls-2" d="M835.37,115.67c-1.25,6.86-5.41,26.42-7.28,32.86H727.84v-5.82c18.93-1.46,20.59-3.12,20.59-20V40c0-18.72-1.66-19.34-17.89-20.8V13.34h92.76c0,5.2,1,19.34,1.66,30l-6,1c-1.87-8.74-4-13.31-6.66-17.89-2.91-4.37-8.53-5.82-23.5-5.82H773c-6.45,0-6.86.42-6.86,6.66V74.49h19.55c18.72,0,19.76-1.66,22.46-15.6h6V98.83h-6c-2.7-15-4.16-16.22-22.26-16.22H766.11v39.31c0,9.78,1.25,14.14,5,16.85,4,2.5,11.23,2.7,21.63,2.7,15.81,0,21.63-1.66,26.21-7.07,3.54-4.16,7.49-11.23,10.19-19.55Z" transform="translate(-0.76 -0.45)"/><path class="cls-2" d="M991,19.17c-12.48.83-17.26,3.74-18.3,12.27-.62,5.62-1,14.56-1,33.69V82.39c0,24.54-3.74,42.22-15.81,54.91-9.57,10-23.5,14.35-37.23,14.35-12.06,0-24.13-2.91-33.28-10C872.82,132.1,867,116.5,867,92.17v-52c0-18.72-1.66-19.55-18.1-21V13.34h53.87v5.82c-16.43,1-18.09,2.29-18.09,21V87.59c0,33.49,13.31,52.62,39.1,52.62,30,0,39.31-25,39.31-59.28V65.13c0-19.13-.62-27.87-1.46-34.32-1.25-8.11-5.62-10.61-20.17-11.65V13.34H991Z" transform="translate(-0.76 -0.45)"/><path class="cls-2" d="M1119.29,150.2c-2.5,0-4.78,0-7.28-.21-15.6-.83-24.33-5.41-33.7-18.93-7.28-10.19-14.77-23.09-21-33.28-3.54-5.82-7.07-8.32-17.89-8.32h-6.66v33.07c0,17.68,1.87,18.93,18.51,20.17v5.82h-54.7v-5.82c17.06-1.25,18.93-2.5,18.93-20.17V38.92c0-17.68-1.66-18.3-17.89-19.76V13.34h51.58c15.18,0,25.38,1.87,33.28,7.07,8.32,5.41,13.73,14.77,13.73,27.25,0,17.89-11,28.91-26.42,35.57,3.54,6.86,12.27,20.8,18.51,30.16,7.49,10.82,11.86,16.22,16.85,21.63,5.62,6.24,10.4,8.53,15,9.78Zm-76.54-67.6c10.61,0,17.47-1.66,22.67-5.82,8.11-6.24,11.44-14.56,11.44-25.79,0-22.46-14.77-30.78-30.57-30.78-6,0-9.57.83-11.23,2.08-1.46,1-2.29,3.54-2.29,9.15V82.6Z" transform="translate(-0.76 -0.45)"/><path class="cls-1" d="M1141.05,139a11.65,11.65,0,1,1,23.3,0c0,7.28-5,12.06-11.65,12.06S1141.05,146.25,1141.05,139Z" transform="translate(-0.76 -0.45)"/><path class="cls-1" d="M1281.86,143.13c-4.58.83-20.17,3.54-32.24,7.9V137.51L1236.94,145c-8.11,4.78-13.73,6-16.22,6-16.64,0-38.48-15.18-38.48-44.3,0-28.91,25.38-51.58,53.66-51.58a48,48,0,0,1,13.73,2.29V28.11c0-13.73-1-14.35-16-15.39v-5c10.82-1.46,24.75-4.58,32.45-7.28V124.62c0,10.82,1.46,11.86,9.15,12.69l6.66.62Zm-32.24-69.68c-5-7.28-13.52-10.61-21.42-10.61-9.57,0-27,8.11-27,38.27,0,24.75,15.18,36.81,28.5,36.81,7.49,0,15-3.33,20-7.07Z" transform="translate(-0.76 -0.45)"/><path class="cls-1" d="M1368.39,130.86c-13.1,16.43-27.46,20.18-33.9,20.18-25.58,0-40.56-20.8-40.56-44.3a53.56,53.56,0,0,1,13.73-36.4c8.53-9.57,19.76-15.18,30.58-15.18,17.26,0,31.2,15.39,31.2,31.62,0,4.16-1,5.82-4.78,6.66-3.54.62-29.54,2.7-54.29,3.54.21,28.29,16.43,39.93,31,39.93,8.32,0,16.22-3.33,23.71-10.4Zm-57-42.43c11.65,0,23.09-.21,35.15-.62,3.74,0,5-1.25,5-4.16.21-10.82-6.86-20.8-18.3-20.8C1323.67,62.84,1314.52,71.58,1311.4,88.43Z" transform="translate(-0.76 -0.45)"/></svg>