<svg xmlns="http://www.w3.org/2000/svg" xmlns:xlink="http://www.w3.org/1999/xlink" width="190" height="190" viewBox="0 0 190 190">
  <defs>
    <clipPath id="clip-path">
      <rect id="Rechteck_50" data-name="Rechteck 50" width="116.486" height="20.827" fill="#fff"/>
    </clipPath>
  </defs>
  <g id="Gruppe_289" data-name="Gruppe 289" transform="translate(-140 -1846)">
    <rect id="Rechteck_76" data-name="Rechteck 76" width="190" height="190" transform="translate(140 1846)" fill="#3b3b3b"/>
    <g id="Gruppe_100" data-name="Gruppe 100" transform="translate(176.999 1931)">
      <g id="Gruppe_62" data-name="Gruppe 62" transform="translate(0 0)" clip-path="url(#clip-path)">
        <path id="Pfad_49" data-name="Pfad 49" d="M-973.907,10.33c0-4.5,2.332-7.163,5.83-7.163h.278c3.5,0,5.829,2.662,5.829,7.163s-2.331,7.163-5.829,7.163h-.278c-3.5,0-5.83-2.663-5.83-7.163m5.964,10.2c5.413,0,9.3-3.824,9.3-10.2s-3.908-10.2-9.3-10.2-9.3,3.824-9.3,10.2,3.885,10.2,9.3,10.2M-1049.335,12l2.71-9.673h1.957l2.712,9.673Zm-1.677-6.162-4.083,14.435h3.439l1.483-5.247h9.055l1.481,5.247h3.5l-4.081-14.435c-1.125-3.935-2.74-5.648-5.4-5.648h-.057c-2.6,0-4.22,1.711-5.337,5.648m38.73,6.161,2.71-9.673h1.957L-1004.9,12Zm-1.678-6.162-4.083,14.435h3.439l1.482-5.246h9.056l1.482,5.246h3.494l-4.08-14.435c-1.125-3.935-2.739-5.648-5.395-5.648h-.056c-2.6,0-4.221,1.711-5.339,5.648m-50.726,14.721c4.644,0,7.786-2.753,8.15-6.7h-3.34a4.418,4.418,0,0,1-4.678,3.66h-.271c-3.448,0-5.727-2.668-5.727-7.175s2.279-7.175,5.727-7.175h.271a4.433,4.433,0,0,1,4.671,3.66h3.338c-.361-3.888-3.5-6.7-8.151-6.7-5.338,0-9.2,3.83-9.2,10.215s3.836,10.215,9.2,10.215m66.354-10.336c0-6.006,3.723-10.039,9.588-10.039,4.569,0,7.9,2.707,8.489,6.881h-3.356a5.013,5.013,0,0,0-5.217-4.033c-3.751,0-6.176,2.961-6.176,7.191s2.369,7.192,6.147,7.192c3.047,0,5.5-1.721,5.669-4.907v-.48h-5.471V9.3h8.573V20.1h-2.51l-.284-2.651a7.172,7.172,0,0,1-6.118,2.82c-5.526,0-9.335-4.033-9.335-10.04m-28.465,7.319c2.335,0,4.023-1.041,4.023-2.925,0-2.082-2.053-2.532-5.176-3.095-3.263-.563-6.357-1.6-6.357-5.515,0-3.431,2.813-5.767,7-5.767,4.5,0,7.315,2.447,7.456,6.076h-3.236c-.253-2-1.828-3.347-4.22-3.347-2.221,0-3.769.956-3.769,2.813,0,2.025,2.026,2.448,5.12,2.983,3.263.59,6.442,1.631,6.415,5.513,0,3.545-2.954,5.993-7.288,5.993-4.895,0-7.849-2.7-7.961-6.64l3.263.056c.169,2.307,1.969,3.854,4.726,3.854M-8133,.188H6084.274M-8133,.132H6084.274" transform="translate(1075.127 -0.017)" fill="#fff"/>
      </g>
    </g>
  </g>
</svg>
